<?xml version="1.0" encoding="UTF-8"?>
<svg version="1.1" xmlns="http://www.w3.org/2000/svg" width="512" height="512">
<path d="M0 0 C1.01790619 0.00215515 2.03581238 0.0043103 3.08456421 0.00653076 C17.69363523 0.05620146 32.02575853 0.30709809 46.375 3.3125 C47.34985352 3.51117676 48.32470703 3.70985352 49.32910156 3.91455078 C97.7109774 14.03517194 141.69928269 35.9516877 177.375 70.3125 C178.3640332 71.26068604 178.3640332 71.26068604 179.37304688 72.22802734 C188.86130305 81.37247479 197.6012044 90.66984009 205.375 101.3125 C206.23306152 102.46355017 207.09113451 103.61459177 207.94921875 104.765625 C213.98736829 112.95680614 219.34595521 121.47054105 224.375 130.3125 C224.73948242 130.94430176 225.10396484 131.57610352 225.47949219 132.22705078 C247.08534998 169.97532572 256.85198095 212.74189997 256.6875 255.9375 C256.68534485 256.95540619 256.6831897 257.97331238 256.68096924 259.02206421 C256.63129854 273.63113523 256.38040191 287.96325853 253.375 302.3125 C253.07698486 303.77478027 253.07698486 303.77478027 252.77294922 305.26660156 C242.65232806 353.6484774 220.7358123 397.63678269 186.375 433.3125 C185.74287598 433.97185547 185.11075195 434.63121094 184.45947266 435.31054688 C175.31502521 444.79880305 166.01765991 453.5387044 155.375 461.3125 C154.22394983 462.17056152 153.07290823 463.02863451 151.921875 463.88671875 C143.73224019 469.92427396 135.22961724 475.30707302 126.375 480.3125 C125.66778809 480.7146875 124.96057617 481.116875 124.23193359 481.53125 C101.09654164 494.5566741 75.92537591 503.30551461 49.9375 508.625 C49.21860596 508.77235596 48.49971191 508.91971191 47.7590332 509.0715332 C33.08339502 511.86090125 18.55831162 512.66142619 3.64770508 512.62817383 C0.70811513 512.6250221 -2.2304558 512.64854926 -5.16992188 512.67382812 C-18.54306192 512.71848737 -31.43916711 511.51301542 -44.625 509.3125 C-46.33055054 509.03031616 -46.33055054 509.03031616 -48.07055664 508.74243164 C-91.33802759 500.97044532 -132.38793216 480.98345309 -165.625 452.3125 C-166.37007813 451.67828125 -167.11515625 451.0440625 -167.8828125 450.390625 C-181.38779833 438.57948485 -194.05918743 425.82889772 -204.625 411.3125 C-205.48149066 410.16255169 -206.33826433 409.01281411 -207.1953125 407.86328125 C-213.23534209 399.67315742 -218.61867614 391.16870382 -223.625 382.3125 C-224.0271875 381.60528809 -224.429375 380.89807617 -224.84375 380.16943359 C-237.8691741 357.03404164 -246.61801461 331.86287591 -251.9375 305.875 C-252.08485596 305.15610596 -252.23221191 304.43721191 -252.3840332 303.6965332 C-255.35789088 288.05024391 -255.99800362 272.57681954 -255.9375 256.6875 C-255.93534485 255.66959381 -255.9331897 254.65168762 -255.93096924 253.60293579 C-255.88129854 238.99386477 -255.63040191 224.66174147 -252.625 210.3125 C-252.42632324 209.33764648 -252.22764648 208.36279297 -252.02294922 207.35839844 C-241.90232806 158.9765226 -219.9858123 114.98821731 -185.625 79.3125 C-184.99287598 78.65314453 -184.36075195 77.99378906 -183.70947266 77.31445312 C-174.56502521 67.82619695 -165.26765991 59.0862956 -154.625 51.3125 C-153.47394983 50.45443848 -152.32290823 49.59636549 -151.171875 48.73828125 C-142.98224019 42.70072604 -134.47961724 37.31792698 -125.625 32.3125 C-124.91778809 31.9103125 -124.21057617 31.508125 -123.48193359 31.09375 C-100.34654164 18.0683259 -75.17537591 9.31948539 -49.1875 4 C-48.46860596 3.85264404 -47.74971191 3.70528809 -47.0090332 3.5534668 C-31.36274391 0.57960912 -15.88931954 -0.06050362 0 0 Z " fill="#656FAA" transform="translate(255.625,-0.3125)"/>
<path d="M0 0 C0 111.87 0 223.74 0 339 C-2.10153921 336.89846079 -2.57774226 335.78968647 -3.51782227 333.03662109 C-3.80384811 332.20872574 -4.08987396 331.38083038 -4.38456726 330.52784729 C-4.84582756 329.16441444 -4.84582756 329.16441444 -5.31640625 327.7734375 C-5.6443367 326.82013046 -5.97226715 325.86682343 -6.31013489 324.8846283 C-7.02332998 322.80980603 -7.73394748 320.73409639 -8.44232178 318.65762329 C-10.35942254 313.03966047 -12.29626796 307.42849962 -14.23046875 301.81640625 C-14.6285675 300.65970932 -15.02666626 299.50301239 -15.43682861 298.31126404 C-19.34955806 286.95455048 -23.35213042 275.63057693 -27.375 264.3125 C-28.77516379 260.36994221 -30.17479983 256.42719724 -31.57421875 252.484375 C-31.92713989 251.49020065 -32.28006104 250.49602631 -32.64367676 249.47172546 C-37.98731191 234.40982217 -43.28082353 219.33021887 -48.58154297 204.25317383 C-49.1521344 202.63042793 -49.1521344 202.63042793 -49.73425293 200.97489929 C-50.47110561 198.87862964 -51.20752811 196.78220873 -51.94348145 194.68562317 C-53.57811257 190.03092348 -55.21886254 185.37871856 -56.88134766 180.73388672 C-57.16577225 179.93687851 -57.45019684 179.1398703 -57.74324036 178.31871033 C-58.26471633 176.85922202 -58.78869844 175.40062561 -59.3157196 173.94313049 C-61 169.22292988 -61 169.22292988 -61 167 C-67.93 167.33 -74.86 167.66 -82 168 C-83.04414063 170.90167969 -84.08828125 173.80335938 -85.1640625 176.79296875 C-91.92464415 195.5786413 -98.68697246 214.36368016 -105.4609375 233.14453125 C-105.68828205 233.77484756 -105.9156266 234.40516388 -106.14986038 235.05458069 C-108.46321783 241.46825841 -110.77692707 247.88180917 -113.09095192 254.29524612 C-117.79623712 267.33644681 -122.49794348 280.37891353 -127.1875 293.42578125 C-127.59846924 294.56880707 -128.00943848 295.71183289 -128.43286133 296.88949585 C-130.35367121 302.23185648 -132.27354517 307.57454881 -134.19140625 312.91796875 C-138.04528711 323.64441644 -141.96966236 334.33849746 -146 345 C-137.75 345 -129.5 345 -121 345 C-120.67 342.69 -120.34 340.38 -120 338 C-119.39294434 335.76701355 -119.39294434 335.76701355 -118.70898438 333.84057617 C-118.45201782 333.10679245 -118.19505127 332.37300873 -117.93029785 331.61698914 C-117.65423706 330.85006241 -117.37817627 330.08313568 -117.09375 329.29296875 C-116.80898804 328.48636307 -116.52422607 327.67975739 -116.23083496 326.84870911 C-115.32664423 324.29276606 -114.4133123 321.74019583 -113.5 319.1875 C-112.88614881 317.45397776 -112.27286187 315.7202556 -111.66015625 313.98632812 C-107.19551854 301.39103708 -107.19551854 301.39103708 -106 299 C-83.89 299 -61.78 299 -39 299 C-33.25364008 312.79126381 -33.25364008 312.79126381 -31.10546875 319.390625 C-30.86838699 320.10611511 -30.63130524 320.82160522 -30.38703918 321.55877686 C-29.64952204 323.78778138 -28.91837375 326.01880956 -28.1875 328.25 C-27.68076441 329.78529688 -27.17360555 331.32045412 -26.66601562 332.85546875 C-25.43835418 336.56849373 -24.2193783 340.28420622 -23 344 C-15.41 344.33 -7.82 344.66 0 345 C0 400.11 0 455.22 0 512 C-15.55998569 512 -29.88009619 511.69434492 -45 509 C-45.91185059 508.83902832 -46.82370117 508.67805664 -47.76318359 508.51220703 C-91.36461429 500.53941775 -132.44282799 480.94708129 -166 452 C-166.74507813 451.36578125 -167.49015625 450.7315625 -168.2578125 450.078125 C-181.76279833 438.26698485 -194.43418743 425.51639772 -205 411 C-205.85649066 409.85005169 -206.71326433 408.70031411 -207.5703125 407.55078125 C-213.61034209 399.36065742 -218.99367614 390.85620382 -224 382 C-224.4021875 381.29278809 -224.804375 380.58557617 -225.21875 379.85693359 C-238.2441741 356.72154164 -246.99301461 331.55037591 -252.3125 305.5625 C-252.45985596 304.84360596 -252.60721191 304.12471191 -252.7590332 303.3840332 C-255.73289088 287.73774391 -256.37300362 272.26431954 -256.3125 256.375 C-256.31034485 255.35709381 -256.3081897 254.33918762 -256.30596924 253.29043579 C-256.25629854 238.68136477 -256.00540191 224.34924147 -253 210 C-252.80132324 209.02514648 -252.60264648 208.05029297 -252.39794922 207.04589844 C-242.27732806 158.6640226 -220.3608123 114.67571731 -186 79 C-185.36787598 78.34064453 -184.73575195 77.68128906 -184.08447266 77.00195312 C-174.94002521 67.51369695 -165.64265991 58.7737956 -155 51 C-153.84894983 50.14193848 -152.69790823 49.28386549 -151.546875 48.42578125 C-143.35724019 42.38822604 -134.85461724 37.00542698 -126 32 C-125.29278809 31.5978125 -124.58557617 31.195625 -123.85693359 30.78125 C-97.9229405 16.18018945 -69.33516936 6.81800319 -40 2 C-39.29391602 1.88285645 -38.58783203 1.76571289 -37.86035156 1.64501953 C-25.12404774 -0.37561519 -13.0611289 0 0 0 Z " fill="#4B5896" transform="translate(256,0)"/>
<path d="M0 0 C6.93 0 13.86 0 21 0 C29.86322413 24.98952565 38.70672687 49.98576573 47.5 75 C53.69133184 92.61019891 59.89547881 110.21577107 66.125 127.8125 C66.47932098 128.81397064 66.83364197 129.81544128 67.19869995 130.84725952 C70.45678548 140.0544081 73.71732128 149.26015267 77.05859375 158.4375 C77.49220215 159.63012451 77.92581055 160.82274902 78.37255859 162.05151367 C79.13250864 164.13412606 79.89673033 166.21518799 80.66650391 168.29418945 C80.98409668 169.16261475 81.30168945 170.03104004 81.62890625 170.92578125 C81.89775635 171.65192627 82.16660645 172.37807129 82.44360352 173.1262207 C83 175 83 175 83 178 C75.08 178 67.16 178 59 178 C56.52007873 171.80019683 54.12152265 165.67689587 51.984375 159.3671875 C51.75250488 158.68922119 51.52063477 158.01125488 51.28173828 157.31274414 C50.43498165 154.83446594 49.59273531 152.35464853 48.75 149.875 C46.8525 144.30625 44.955 138.7375 43 133 C9.835 132.505 9.835 132.505 -24 132 C-24.99 135.3 -25.98 138.6 -27 142 C-27.96003702 144.95568532 -28.92911976 147.9056783 -29.91796875 150.8515625 C-30.18007645 151.63647064 -30.44218414 152.42137878 -30.7122345 153.23007202 C-31.53589403 155.6955285 -32.36165513 158.16027479 -33.1875 160.625 C-33.75209343 162.31375518 -34.3165477 164.0025569 -34.88085938 165.69140625 C-36.25204564 169.7948976 -37.62608246 173.89741833 -39 178 C-47.25 178 -55.5 178 -64 178 C-60.62548805 165.62678953 -60.62548805 165.62678953 -59.14086914 161.59106445 C-58.80444397 160.66928909 -58.4680188 159.74751373 -58.12139893 158.79780579 C-57.76293884 157.82941269 -57.40447876 156.86101959 -57.03515625 155.86328125 C-56.65002869 154.81081711 -56.26490112 153.75835297 -55.86810303 152.67399597 C-55.03743901 150.40486425 -54.20485058 148.13643624 -53.37051392 145.86865234 C-51.34098482 140.35088639 -49.32389973 134.82857723 -47.30739403 129.30604172 C-46.84033051 128.02699808 -46.37311674 126.74800931 -45.905756 125.46907425 C-40.80337893 111.50478266 -35.80004838 97.50568842 -30.8125 83.5 C-24.76771016 66.54154596 -18.718202 49.58486418 -12.61190796 32.6484375 C-11.88058531 30.61875872 -11.15042906 28.58865921 -10.42153931 26.55810547 C-9.41970812 23.76801631 -8.41357004 20.97951764 -7.40625 18.19140625 C-7.11860275 17.38776138 -6.83095551 16.58411652 -6.53459167 15.75611877 C-4.57679473 10.35823624 -2.34551117 5.27740012 0 0 Z " fill="#FDFDFD" transform="translate(174,167)"/>
<path d="M0 0 C0.96292969 0.42410156 1.92585938 0.84820312 2.91796875 1.28515625 C16.62577733 8.07288491 26.8039766 19.64109662 32 34 C33 38 33 38 33 49 C25.41 49 17.82 49 10 49 C9.46375 46.69 8.9275 44.38 8.375 42 C6.74244192 35.59429067 4.7231477 30.78019055 0 26 C-0.51304687 25.44957031 -1.02609375 24.89914063 -1.5546875 24.33203125 C-9.12744986 16.99478542 -17.96424391 15.65039096 -28.125 15.5625 C-28.95990967 15.55234863 -29.79481934 15.54219727 -30.6550293 15.53173828 C-39.70320399 15.65833606 -48.09959641 18.07609327 -54.62890625 24.63671875 C-60.66131876 31.33778421 -61.64111212 37.2487764 -61.37109375 46.1953125 C-60.68662296 53.21293938 -58.0954315 58.60694604 -52.6875 63.1875 C-42.4037492 69.94864003 -30.69376682 73.48887531 -19 76.9375 C1.66925271 83.06518248 20.20345819 91.97274536 30.9921875 111.6640625 C33.56875417 117.63610463 34.31917408 123.03313268 34.25 129.4375 C34.26160156 130.50581055 34.26160156 130.50581055 34.2734375 131.59570312 C34.23159906 143.11173344 29.95375655 153.71824517 22.05078125 162.12890625 C15.79802078 167.8338058 8.64439025 171.37570784 0.8125 174.375 C0.15967041 174.62588379 -0.49315918 174.87676758 -1.16577148 175.13525391 C-19.16918408 181.63868929 -42.65290433 180.06934697 -59.90380859 172.12304688 C-73.74376457 165.38371448 -84.20540191 156.09945779 -89.875 141.625 C-91.55986895 136.13685961 -91.19618501 130.68936537 -91 125 C-83.41 125 -75.82 125 -68 125 C-67.34 128.63 -66.68 132.26 -66 136 C-62.54239314 145.26638639 -56.03406236 150.83107126 -47.125 154.9375 C-40.30987273 157.80140676 -34.84463557 158.24613281 -27.5 158.3125 C-26.46101563 158.34150391 -25.42203125 158.37050781 -24.3515625 158.40039062 C-14.36875422 158.48129867 -5.52464979 156.05148539 2.34375 149.71484375 C8.30377313 143.54397075 9.42760339 135.6665445 9.3359375 127.42578125 C8.64035429 120.33245011 5.47404428 115.0662152 0.375 110.1875 C-4.30223791 106.44921979 -9.459226 104.17972677 -15 102 C-15.86496094 101.65195312 -16.72992188 101.30390625 -17.62109375 100.9453125 C-22.81954411 98.95244446 -28.04323789 97.43718453 -33.4375 96.0625 C-40.28168402 94.27706069 -46.60429129 92.01222693 -53 89 C-54.05960937 88.50886719 -55.11921875 88.01773438 -56.2109375 87.51171875 C-68.66583409 81.31385453 -79.7566548 72.3054999 -84.58984375 58.90234375 C-88.04380443 48.24565122 -87.88388805 33.7467419 -82.8046875 23.703125 C-73.62461491 9.9528864 -60.93933024 0.29279007 -44.69628906 -3.54418945 C-30.62932298 -5.9222251 -13.17607767 -5.84995979 0 0 Z " fill="#FDFDFD" transform="translate(368,169)"/>
<path d="M0 0 C0.66 0 1.32 0 2 0 C2.54974487 1.61165039 2.54974487 1.61165039 3.1105957 3.25585938 C4.52560634 7.40384853 5.94121675 11.55163285 7.35687256 15.69940186 C8.31143521 18.4968795 9.26535349 21.29457632 10.21923828 24.09228516 C13.25197974 32.98277568 16.29436923 41.86951982 19.37890625 50.7421875 C19.89222362 52.22198703 20.40549014 53.70180421 20.91870117 55.18164062 C21.64206659 57.26718065 22.36697762 59.35210971 23.09707642 61.43530273 C23.76401061 63.33829063 24.42513183 65.24331283 25.0859375 67.1484375 C25.4576709 68.21239746 25.8294043 69.27635742 26.21240234 70.37255859 C27 73 27 73 27 76 C9.51 76 -7.98 76 -26 76 C-17.59185126 50.57047697 -8.91677967 25.25492903 0 0 Z " fill="#4D5A97" transform="translate(183,203)"/>
</svg>
